<svg width="40" height="40" fill="none" xmlns="http://www.w3.org/2000/svg"><path fill-rule="evenodd" clip-rule="evenodd" d="M20 0C8.956 0 0 8.956 0 20s8.956 20 20 20 20-8.956 20-20S31.044 0 20 0zm11.415 24.735c-.055 1.222-.25 2.057-.534 2.788a5.872 5.872 0 01-3.358 3.358c-.73.284-1.566.478-2.788.534-1.225.056-1.616.07-4.735.07s-3.51-.014-4.735-.07c-1.222-.056-2.057-.25-2.787-.534a5.626 5.626 0 01-2.035-1.324 5.628 5.628 0 01-1.324-2.034c-.284-.73-.478-1.566-.534-2.788-.056-1.225-.07-1.616-.07-4.735s.014-3.51.07-4.735c.055-1.222.25-2.057.533-2.788a5.647 5.647 0 011.325-2.034 5.625 5.625 0 012.034-1.324c.731-.284 1.566-.478 2.788-.534 1.225-.056 1.616-.07 4.735-.07s3.51.014 4.735.07c1.222.056 2.057.25 2.788.533a5.63 5.63 0 012.034 1.325 5.626 5.626 0 011.324 2.034c.285.731.479 1.566.534 2.788.056 1.225.07 1.616.07 4.735s-.014 3.51-.07 4.735zm-2.52-11.44a3.579 3.579 0 00-.863-1.327 3.571 3.571 0 00-1.326-.863c-.407-.158-1.018-.346-2.142-.397-1.217-.055-1.582-.067-4.662-.067-3.081 0-3.446.011-4.662.067-1.125.051-1.736.24-2.142.397a3.57 3.57 0 00-1.327.863 3.577 3.577 0 00-.863 1.327c-.158.406-.346 1.017-.397 2.142-.056 1.216-.068 1.581-.068 4.662 0 3.08.012 3.445.068 4.662.051 1.125.239 1.735.397 2.142.185.501.48.954.863 1.326a3.55 3.55 0 001.326.863c.407.159 1.018.347 2.143.398 1.216.055 1.58.067 4.661.067 3.081 0 3.446-.012 4.662-.067 1.125-.051 1.736-.24 2.143-.398a3.82 3.82 0 002.19-2.19c.157-.406.345-1.016.396-2.141.056-1.217.068-1.582.068-4.662s-.012-3.446-.067-4.662c-.052-1.125-.24-1.736-.398-2.142zm-8.993 12.727a5.924 5.924 0 11-.001-11.848 5.924 5.924 0 010 11.848zm4.773-12.082a1.385 1.385 0 102.77 0 1.385 1.385 0 00-2.77 0zM23.843 20a3.842 3.842 0 11-7.684 0 3.842 3.842 0 017.684 0z" fill="#fff"/></svg>